#!OML:ASF E:/inclinewalkrobotboard/Project1/Captureday1/Session1/subject1.ASF
:FULLY-SPECIFIED
:DEGREES
176
root 0 0 0 -2.105062034615157 -3.7235958403640095 0.5098974110388179
lowerback 7.568459880701885 1.615485133924386 -2.5343860069299597
upperback 1.930995287082784 2.003810688940058 -0.07777827828559036
thorax -2.2722656791893048 1.054527201912897 1.2224687939172099
lowerneck -9.165706322523533 -5.547263004228861 -6.488074721998618
upperneck 30.884309191352646 -8.674390055263604 6.181129836046178
head 11.560084081445492 -3.9590450319160864 2.0611229373323745
rclavicle -1.9565929700918865E-15 1.6056390722746804E-15
rhumerus -9.58691319719647 3.416526512784447 -79.91124920350192
rradius 50.58421146984876
rwrist -21.175848324520835
rhand -41.957483836814376 15.697467620317669
rfingers 7.1250199999999495
rthumb -14.812591514113615 -13.725785505112562
lclavicle -6.115858931823633E-15 1.3119145511484636E-15
lhumerus -31.04255579803749 11.950044109737346 76.9779226921783
lradius 24.734894458069903
lwrist -4.900300368840426
lhand -24.401677480466734 21.838997138995882
lfingers 7.125019999999957
lthumb 2.0925030794707005 51.77938529825621
rfemur 1.9089403870412451 8.397033937141225 34.5647747512979
rtibia 27.67270166066716
rfoot -20.15241956356858 -9.045315469407509
rtoes 3.4669240640155707
lfemur -31.809748817072325 1.0025046050125894 -13.441114505861478
ltibia 39.572773131634634
lfoot -4.513527081318186 -4.1790938204938275
ltoes -4.743958405306554
177
root 0 0 0 -2.106026264754819 -3.7255041419181163 0.5055001346076211
lowerback 7.590994669145214 1.6096141883533452 -2.5349954796902616
upperback 1.9132922365388145 1.996017944832455 -0.07230374962929553
thorax -2.305357841144678 1.0498960761917417 1.229193598504454
lowerneck -9.22684675169685 -5.543858208473051 -6.470290999157988
upperneck 30.906560733785316 -8.665494389162326 6.167120423354793
head 11.570687901147457 -3.9540893612953343 2.0575146629750236
rclavicle -1.7317537676315598E-15 1.5555817750361874E-15
rhumerus -9.254974769957538 2.978502049383712 -79.84914936462519
rradius 50.058001388000825
rwrist -21.026031514754393
rhand -42.00166069832907 15.864620566408604
rfingers 7.125019999999948
rthumb -14.850910671129757 -13.554144877116467
lclavicle -5.9684608579272654E-15 1.2379743768154059E-15
lhumerus -31.032507857118382 11.968698214298032 76.98170948001923
lradius 24.73944556787644
lwrist -4.8942029130750395
lhand -24.41895954380758 21.82519853923703
lfingers 7.125019999999957
lthumb 2.0759862060016125 51.766217761586134
rfemur 0.6823370518009431 8.314978185469057 34.42976512119842
rtibia 28.82449355347449
rfoot -19.43837547865299 -9.086202610373856
rtoes 3.5352675369193323
lfemur -31.28355587278392 0.9848930768233934 -13.837198297307097
ltibia 39.45806685865941
lfoot -4.0541921823194755 -4.817934797884449
ltoes -4.213178323767281
178
root 0 0 0 -2.111577401595973 -3.7360595014824467 0.5011740421036934
lowerback 7.605834833772746 1.6020350486218944 -2.5344771827663104
upperback 1.8954278299435878 1.9861984267816921 -0.06621380816902345
thorax -2.3339228111692387 1.044327824982891 1.2365519334052055
lowerneck -9.27907024553679 -5.5384232380311476 -6.449791802386187
upperneck 30.939723135636715 -8.656198508897214 6.145571150413242
head 11.583229010169378 -3.949073221205424 2.0505298537710055
rclavicle -1.5731881134294002E-15 1.5030446311972852E-15
rhumerus -8.921108379251997 2.5517914495594143 -79.77878293576731
rradius 49.56795663333165
rwrist -20.89101303501621
rhand -42.033831338023745 16.00767038061556
rfingers 7.125019999999946
rthumb -14.878296814152584 -13.40722058200765
lclavicle -5.865852068137171E-15 1.151246216544953E-15
lhumerus -30.99026051083949 11.953605199011358 77.04440220937006
lradius 24.76252119858032
lwrist -4.861280798332064
lhand -24.4168928332362 21.820403193075002
lfingers 7.125019999999957
lthumb 2.0779856097944727 51.76162712756028
rfemur -1.2843299412779912 8.205857471790793 34.20172083049001
rtibia 30.319246555616985
rfoot -18.499768661818244 -9.21502051429832
rtoes 3.8528690602039384
lfemur -30.537408387886778 1.0847853699966024 -14.270530567099115
ltibia 40.09960279095216
lfoot -3.6765543405299645 -5.490598091702859
ltoes -3.8314552838019607
179
root 0 0 0 -2.1215430627410745 -3.755149920290436 0.4970722245554156
lowerback 7.612795197728465 1.592882488361954 -2.5331041292307215
upperback 1.8779111949731604 1.9745007680491464 -0.059659299649147735
thorax -2.3572888775371914 1.0379129747614944 1.2444991635605778
lowerneck -9.321163400041808 -5.531342412088508 -6.427352908672652
upperneck 30.98378170282982 -8.647132530187472 6.117141518076956
head 11.59770759806171 -3.944298520376025 2.0403557084629553
rclavicle -1.4627851686717692E-15 1.4497701703363414E-15
rhumerus -8.591393595028094 2.1510369496171817 -79.69908009879066
rradius 49.131687485816975
rwrist -20.771846936375212
rhand -42.05088133175788 16.127154383766324
rfingers 7.125019999999945
rthumb -14.891532227093132 -13.284639240667104
lclavicle -5.795015323704217E-15 1.0498567408659871E-15
lhumerus -30.91956807737827 11.909310775419911 77.15894723485977
lradius 24.802529425464893
lwrist -4.803810208162765
lhand -24.398986485053683 21.822873333675325
lfingers 7.125019999999956
lthumb 2.095100552530792 51.763976798105915
rfemur -3.9680764484400846 8.076858933755979 33.872916489930844
rtibia 32.086064004409955
rfoot -17.3278750270824 -9.409965299086863
rtoes 4.3387657931462655
lfemur -29.573767499498253 1.2885047540718872 -14.724995110569527
ltibia 41.40981613218753
lfoot -3.379408840083812 -6.205446891819536
ltoes -3.634501169343024
180
root 0 0 0 -2.148595002720077 -3.804625253894449 0.4906157653681001
lowerback 7.606078502465438 1.5746636245554433 -2.529195801894786
upperback 1.8485385073870044 1.9514892106961483 -0.04830856281733409
thorax -2.385192799850962 1.0256365074077323 1.2582726980804506
lowerneck -9.371298763742795 -5.516669493920779 -6.38688215739191
upperneck 31.080206816300226 -8.633381123548912 6.054930289955488
head 11.62621898457956 -3.937149884652646 2.0164779406783855
rclavicle -1.4082501457936208E-15 1.3656381908667232E-15
rhumerus -8.1130187809983 1.608164874300821 -79.56134494899241
rradius 48.58896570752323
rwrist -20.633868661423133
rhand -42.042271316187325 16.251178291575215
rfingers 7.125019999999942
rthumb -14.87950092786256 -13.1577491635978
lclavicle -5.764630320239014E-15 8.77255411064572E-16
lhumerus -30.781747440565297 11.817307048982117 77.38539882456737
lradius 24.888390278713107
lwrist -4.679812752952596
lhand -24.370445813377245 21.82918530248967
lfingers 7.125019999999955
lthumb 2.122217408579294 51.7698687994529
rfemur -9.141972235732375 7.841371599437346 33.24490258052603
rtibia 35.19262026863882
rfoot -15.12849510428307 -9.709783505447916
rtoes 5.244710506283074
lfemur -27.64247514063107 1.7999634476714288 -15.428010249152512
ltibia 44.82751973536175
lfoot -3.0063229369388154 -7.410904752202816
ltoes -3.7448897526296037
181
root 0 0 0 -2.17581269329457 -3.8474340855477767 0.4854832536086902
lowerback 7.588242870500257 1.5607273847143721 -2.5246080977227563
upperback 1.8248421124472123 1.9341861741373074 -0.04069172862747239
thorax -2.399996512291468 1.0164247974482756 1.2667805373958623
lowerneck -9.401507140256872 -5.504568240864834 -6.356647517835936
upperneck 31.158375063633674 -8.623854185429458 6.000723684779276
head 11.648853184017048 -3.932071542111398 1.9950475084064299
rclavicle -1.4260389547154184E-15 1.3100863623192408E-15
rhumerus -7.7967632374326605 1.291117812104143 -79.45558896032367
rradius 48.33626222851766
rwrist -20.55673411146587
rhand -42.02456744728285 16.299462432306306
rfingers 7.125019999999941
rthumb -14.860468176132567 -13.108150991067806
lclavicle -5.763358991413356E-15 7.375657077849733E-16
lhumerus -30.66073000558678 11.713337015670586 77.5933321104048
lradius 24.94904290520776
lwrist -4.59269676659052
lhand -24.305384320509123 21.85055275164531
lfingers 7.125019999999953
lthumb 2.1844125141014117 51.790545808764776
rfemur -12.416854707109826 7.677131586630112 32.89957270360075
rtibia 37.10065785966972
rfoot -13.740878861594458 -9.799427351192586
rtoes 5.8652742221202825
lfemur -26.23780879439331 2.2275896161085775 -15.797021386863863
ltibia 47.8921577105221
lfoot -2.77565393060914 -8.131031324707797
ltoes -4.071967180055091
182
root 0 0 0 -2.2104238693139195 -3.8937274602597247 0.479360622913435
lowerback 7.558137707898783 1.5467905628435168 -2.517569823962555
upperback 1.7972679624905648 1.9172794226517877 -0.033900804897225245
thorax -2.4113744235841357 1.0073420352289935 1.272916705776098
lowerneck -9.431062764280568 -5.490785635754693 -6.325218012569293
upperneck 31.24095714458565 -8.613568554109833 5.9376899903108
head 11.672893458239438 -3.926420384118071 1.969842371254963
rclavicle -1.5607645667798916E-15 1.2785321214958486E-15
rhumerus -7.562675721261318 1.0791261754965373 -79.36800017751719
rradius 48.21590097174704
rwrist -20.529448278821096
rhand -41.998462535715014 16.290260219631836
rfingers 7.125019999999939
rthumb -14.83501380005621 -13.116807922201698
lclavicle -5.825049332144134E-15 6.252167907865875E-16
lhumerus -30.54064170529612 11.600245991734555 77.803423672915
lradius 25.002743643648554
lwrist -4.515910637657198
lhand -24.223406120990408 21.878764596939323
lfingers 7.125019999999952
lthumb 2.2628649691400087 51.81779968888695
rfemur -14.77419138571561 7.536419111198613 32.73054233679624
rtibia 38.38292517492571
rfoot -12.787881197436626 -9.748748388920019
rtoes 6.475598018222586
lfemur -25.093282244836193 2.65308639501103 -15.928379241527821
ltibia 51.20619012938916
lfoot -2.6036916847968428 -8.527847305653365
ltoes -4.584936216065889
